# xmcd
#
# Track frame offsets:
# 150
# 9379
# 13670
# 20193
# 28869
# 37423
#
# Disc length: 562 seconds
#
# Revision: 1
# Processed by: cddbd v1.5.2PL0 Copyright (c) Steve Scherf et al.
# Submitted via: CedeCatalogueitor 2.6.0.6 http://personales.ya.com/cdcatalogueitor
#
DISCID=4a023006
DTITLE=Thelematicos - Thelematicos
DYEAR=1900
DGENRE=
TTITLE0=Thelematicos
TTITLE1=No Vo A Hacer Nada Por Ti
TTITLE2=La Montaña
TTITLE3=La Casita
TTITLE4=El Amanecer
TTITLE5=No Te Entiendo
EXTD=
EXTT0=
EXTT1=
EXTT2=
EXTT3=
EXTT4=
EXTT5=
PLAYORDER=
